<?xml version="1.0" standalone="no"?>
<svg xmlns="http://www.w3.org/2000/svg" viewBox="0 0 58.415625 48" width="58.415625" height="48"><rect fill="none" stroke="#ead017" stroke-width="3" width="55.415625" height="45" x="1.5" y="1.5"></rect><g fill="#000000" color="#000000" transform="translate(12, 12) scale(0.48)"><svg width="30.0" height="50.0" x="0.0" y="0.0" viewBox="0 0 30 50"><path fill="currentColor" fill-rule="nonzero" d="M.06.89v33.38h.02l14.83 14.84.09-.09.09.09 14.83-14.84h.02V.89H.06zm27.8 32.5L15 46.25 2.14 33.39v-7.17l12.77 12.77.09-.09.09.09 12.77-12.77v7.17zm0-10.11L15 36.13 2.14 23.28v-7.26L13.53 27.4 15 28.88l1.47-1.47 11.38-11.38v7.25h.01zM15 25.93l-3.24-3.24V2.97h6.48v19.72L15 25.93zM9.68 2.97V20.6l-7.53-7.53V2.97h7.53zm18.18 10.1l-7.53 7.53V2.97h7.53v10.1z"></path></svg></g><path fill="#000000" fill-rule="nonzero" d="M0 12.95L0 12.95Q0 12.42 0.10 11.93Q0.20 11.44 0.29 11.14L0.29 11.14L2.38 11.14Q2.38 12.02 2.47 12.62Q2.55 13.21 2.75 13.56Q2.95 13.91 3.29 14.06Q3.62 14.21 4.10 14.21L4.10 14.21Q4.77 14.21 5.07 13.84Q5.38 13.46 5.38 12.97L5.38 12.97Q5.38 12.71 5.31 12.48Q5.24 12.25 5.11 12.01Q4.98 11.77 4.79 11.52Q4.61 11.27 4.37 10.98L4.37 10.98L2.20 8.43Q1.78 7.90 1.39 7.35Q1.00 6.81 0.70 6.23Q0.40 5.65 0.22 5.02Q0.04 4.38 0.04 3.68L0.04 3.68Q0.04 2.74 0.36 2.05Q0.68 1.36 1.22 0.90Q1.77 0.45 2.48 0.22Q3.20 0 4.00 0L4.00 0Q4.88 0 5.58 0.21Q6.28 0.42 6.79 0.84Q7.29 1.27 7.56 1.89Q7.83 2.52 7.83 3.35L7.83 3.35Q7.83 3.91 7.73 4.44Q7.63 4.97 7.54 5.34L7.54 5.34L5.48 5.34Q5.47 4.55 5.41 3.95Q5.36 3.35 5.20 2.96Q5.04 2.57 4.76 2.37Q4.49 2.17 4.04 2.17L4.04 2.17Q3.66 2.17 3.40 2.29Q3.14 2.41 2.98 2.61Q2.82 2.81 2.76 3.06Q2.70 3.30 2.70 3.56L2.70 3.56Q2.70 4.13 2.96 4.61Q3.23 5.09 3.68 5.65L3.68 5.65L6.05 8.43Q6.30 8.74 6.64 9.19Q6.98 9.64 7.29 10.19Q7.59 10.73 7.80 11.38Q8.02 12.02 8.02 12.73L8.02 12.73Q8.02 13.58 7.75 14.28Q7.48 14.98 6.95 15.47Q6.42 15.96 5.65 16.23Q4.89 16.50 3.90 16.50L3.90 16.50Q3.09 16.50 2.38 16.32Q1.66 16.14 1.14 15.72Q0.61 15.30 0.30 14.63Q0 13.95 0 12.95Z" transform="translate(38.4 15.75)"></path></svg>